Love for All and Sharing is the first step to solving all the problems of humanity.

Website I want to share. 
               
   http://www.scenetime.com
 
 
  Credit to EVERYONE for sharing and seeding back
 especially to SCENETIME.COM where i get all my 
 downloads.


 support www.scenetime.com to grow faster.

                             
                                                            
                                                   

.                 ..................................NFO:....................................*******************************************************************************
                   Bride.Flight.2008.DVDRip.AC3.X264-BARC0DE
*******************************************************************************

-------------------------------------------------------------------------------
                              General Information
-------------------------------------------------------------------------------
Type.................: Movie
Name.................: Bride Flight
Movie Information....: http://www.imdb.com/title/tt1094241/
Genre................: Drama | Sport
-------------------------------------------------------------------------------
                                    PLOT
-------------------------------------------------------------------------------

The story of the women on the KLM flight that won the 1953 Air Race from London 
to Christchurch, New Zealand.

-------------------------------------------------------------------------------
                                    CAST
-------------------------------------------------------------------------------
Karina Smulders	... 	Ada
Waldemar Torenstra	... 	Frank
Anna Drijver	... 	Esther
Pleuni Touw	... 	Old Ada
Petra Laseur	... 	Old Marjorie
Elise Schaap	... 	Marjorie
Willeke van Ammelrooy	... 	Old Esther
Rutger Hauer	... 	Old Frank

-------------------------------------------------------------------------------
                                    MEDiA iNFO
-------------------------------------------------------------------------------

General
Complete name                    : Bride.Flight.2008.DVDRip.AC3.X264-BARC0DE.mkv
Format                           : Matroska
File size                        : 1.46 GiB
Duration                         : 2h 4mn
Overall bit rate                 : 1 683 Kbps

Video
ID                               : 1
Format                           : AVC
Format/Info                      : Advanced Video Codec
Format profile                   : High@L3.0
Format settings, CABAC           : Yes
Format settings, ReFrames        : 3 frames
Muxing mode                      : Container profile=Unknown@3.0
Codec ID                         : V_MPEG4/ISO/AVC
Duration                         : 2h 4mn
Bit rate                         : 1 230 Kbps
Width                            : 720 pixels
Height                           : 320 pixels
Display aspect ratio             : 2.25:1
Frame rate                       : 25.000 fps
Color space                      : YUV
Chroma subsampling               : 4:2:0
Bit depth                        : 8 bits
Scan type                        : Progressive
Bits/(Pixel*Frame)               : 0.214
Stream size                      : 1.04 GiB (71%)
Writing library                  : x264 core 79


Audio
ID                               : 2
Format                           : AC-3
Format/Info                      : Audio Coding 3
Mode extension                   : CM (complete main)
Codec ID                         : A_AC3
Duration                         : 2h 4mn
Bit rate mode                    : Constant
Bit rate                         : 448 Kbps
Channel(s)                       : 6 channels
Channel positions                : Front: L C R, Side: L R, LFE
Sampling rate                    : 48.0 KHz
Stream size                      : 399 MiB (27%)
Language                         : Dutch

Text
ID                               : 3
Format                           : VobSub
Codec ID                         : S_VOBSUB
Codec ID/Info                    : The same subtitle format used on DVDs
Language                         : English